<svg xmlns="http://www.w3.org/2000/svg" viewBox="0 0 96 96" role="img" aria-label="MedLing — root-canopy M (hero mark)">
  <!-- Hero mark: M as tree — roots (earth) below the ground line, canopy (forest) above -->
  <path d="M24 64 V 34 L 48 56 L 72 34 V 64"
        fill="none" stroke="#33473A" stroke-width="6"
        stroke-linecap="round" stroke-linejoin="round"/>
  <path d="M30 22 Q 48 8 66 22 Q 58 16 48 17 Q 38 16 30 22 Z" fill="#4F6B57"/>
  <path d="M37 26 Q 48 17 59 26 Q 53 22 48 23 Q 43 22 37 26 Z" fill="#8DA088"/>
  <g stroke="#7A7461" stroke-width="3.5" stroke-linecap="round" fill="none">
    <path d="M24 64 v 8 m 0 -8 l -7 9 m 7 -4 l 6 7"/>
    <path d="M72 64 v 8 m 0 -8 l 7 9 m -7 -4 l -6 7"/>
  </g>
  <line x1="14" y1="64" x2="82" y2="64" stroke="#C9C2AE" stroke-width="1.5" stroke-linecap="round"/>
</svg>
